<svg width="454" height="133" viewBox="0 0 454 133" fill="none" xmlns="http://www.w3.org/2000/svg">
<g clip-path="url(#clip0_101_35)">
<path d="M213.076 64.0475C210.83 65.0961 208.094 65.9162 204.869 66.4943C201.643 67.0724 198.376 67.3681 195.069 67.3681C189.951 67.3681 185.582 66.7228 181.989 65.4322C178.396 64.1416 175.443 62.2191 173.142 59.6647C170.842 57.1103 169.182 53.9107 168.147 50.0657C167.113 46.2207 166.582 41.7707 166.582 36.7023C166.582 26.3773 168.869 18.6739 173.469 13.5786C178.056 8.49673 185.419 5.95581 195.559 5.95581C198.445 5.95581 201.344 6.1978 204.283 6.66834C207.223 7.13889 209.837 7.79764 212.123 8.64462L210.844 20.1796C208.707 19.3864 206.38 18.768 203.848 18.3243C201.316 17.8807 198.798 17.6521 196.28 17.6521C193.286 17.6521 190.809 17.9613 188.835 18.5663C186.862 19.1713 185.269 20.2065 184.072 21.645C182.874 23.0835 182.016 25.0329 181.513 27.4528C181.009 29.8727 180.751 32.9111 180.751 36.541C180.751 40.1709 180.996 43.2899 181.472 45.7098C181.948 48.1297 182.738 50.0657 183.827 51.5176C184.916 52.9696 186.358 53.9779 188.141 54.556C189.924 55.1341 192.129 55.4298 194.742 55.4298C197.192 55.4298 199.329 55.161 201.139 54.6366V34.4034H213.062V64.0475H213.076Z" fill="white"/>
<path d="M255.732 44.5132C255.732 48.6809 255.187 52.2032 254.085 55.1071C252.996 58.011 251.417 60.3637 249.362 62.1786C247.307 63.9936 244.802 65.3111 241.835 66.1312C238.868 66.9513 235.547 67.3546 231.872 67.3546C229.368 67.3546 227.136 67.126 225.189 66.6824C223.243 66.2387 221.501 65.6203 219.949 64.8271L220.671 53.6014C221.732 54.2332 223.039 54.7307 224.59 55.1071C226.142 55.4701 227.871 55.6583 229.79 55.6583C233.791 55.6583 236.813 54.7575 238.868 52.9695C240.923 51.1814 241.944 48.2775 241.944 44.2712V6.97754H255.704V44.5266L255.732 44.5132Z" fill="white"/>
<path d="M196.308 86.7948C195.137 86.3646 193.762 85.9747 192.17 85.6655C190.577 85.3429 188.903 85.1815 187.12 85.1815C184.902 85.1815 183.037 85.437 181.499 85.9344C179.975 86.4318 178.723 87.2788 177.756 88.4753C176.79 89.6718 176.082 91.2448 175.647 93.1942C175.197 95.1436 174.98 97.5769 174.98 100.481C174.98 103.546 175.197 106.114 175.647 108.184C176.096 110.255 176.803 111.908 177.797 113.132C178.777 114.369 180.056 115.242 181.635 115.753C183.2 116.278 185.092 116.533 187.311 116.533C189.08 116.533 190.727 116.358 192.238 115.995C193.749 115.632 195.151 115.175 196.444 114.624L197.41 121.48C195.926 122.193 194.184 122.798 192.184 123.268C190.196 123.752 188.209 123.981 186.236 123.981C179.43 123.981 174.394 122.072 171.128 118.254C167.861 114.436 166.228 108.493 166.228 100.414C166.228 92.8581 167.875 87.1712 171.155 83.3531C174.435 79.535 179.621 77.626 186.712 77.626C188.563 77.626 190.455 77.8142 192.388 78.1906C194.32 78.5671 195.926 79.0376 197.219 79.5888L196.308 86.8083V86.7948Z" fill="white"/>
<path d="M234.2 105.293C234.2 108.641 233.887 111.478 233.261 113.83C232.634 116.183 231.668 118.106 230.361 119.611C229.055 121.131 227.381 122.233 225.353 122.919C223.325 123.618 220.888 123.967 218.071 123.967C215.254 123.967 212.817 123.618 210.762 122.919C208.707 122.219 207.019 121.117 205.685 119.611C204.352 118.106 203.372 116.17 202.718 113.83C202.079 111.478 201.752 108.641 201.752 105.293C201.752 101.946 202.079 99.163 202.718 96.7834C203.358 94.4172 204.352 92.4813 205.685 90.9621C207.019 89.4564 208.707 88.3406 210.762 87.6146C212.817 86.8886 215.254 86.5391 218.071 86.5391C220.888 86.5391 223.311 86.902 225.353 87.6146C227.394 88.3271 229.055 89.443 230.361 90.9621C231.668 92.4813 232.634 94.4172 233.261 96.7834C233.887 99.1495 234.2 101.986 234.2 105.293ZM209.728 105.293C209.728 107.646 209.877 109.596 210.177 111.168C210.476 112.741 210.966 114.005 211.633 114.96C212.3 115.914 213.158 116.586 214.233 116.99C215.295 117.393 216.574 117.581 218.071 117.581C219.568 117.581 220.834 117.38 221.882 116.99C222.93 116.586 223.774 115.914 224.414 114.96C225.053 114.005 225.53 112.741 225.829 111.168C226.129 109.596 226.278 107.633 226.278 105.293C226.278 102.954 226.129 100.991 225.829 99.4184C225.53 97.8455 225.053 96.5817 224.414 95.6272C223.774 94.6727 222.916 94.0005 221.882 93.5972C220.834 93.1938 219.568 93.0056 218.071 93.0056C216.574 93.0056 215.254 93.2073 214.206 93.5972C213.158 94.0005 212.3 94.6727 211.633 95.6272C210.966 96.5817 210.49 97.8455 210.177 99.4184C209.864 100.991 209.728 102.954 209.728 105.293Z" fill="white"/>
<path d="M262.959 123.134V99.9159C262.959 97.6438 262.36 96.0037 261.176 94.9954C259.992 93.987 258.263 93.4762 256.017 93.4762C254.643 93.4762 253.282 93.7719 251.934 94.3366C250.587 94.9147 249.525 95.7213 248.763 96.7565V123.134H241.086V87.386L246.585 86.9693L247.796 90.4244C249.171 89.1472 250.736 88.1927 252.506 87.5339C254.275 86.8752 256.153 86.5525 258.127 86.5525C261.992 86.5525 265.041 87.6818 267.273 89.9269C269.505 92.1721 270.622 95.4928 270.622 99.8621V123.134H262.945H262.959Z" fill="white"/>
<path d="M301.504 94.9686C300.497 94.5249 299.422 94.1888 298.279 93.9468C297.135 93.7048 295.978 93.5838 294.808 93.5838C292.998 93.5838 291.46 93.7855 290.18 94.2157C288.915 94.6325 287.894 95.3047 287.132 96.2458C286.369 97.1868 285.811 98.3699 285.471 99.8219C285.131 101.274 284.954 103.035 284.954 105.105C284.954 109.488 285.784 112.594 287.458 114.449C289.132 116.304 291.514 117.218 294.617 117.218C297.312 117.218 299.694 116.667 301.749 115.551L302.294 121.642C301.246 122.314 299.912 122.865 298.306 123.282C296.7 123.699 294.917 123.914 292.984 123.914C287.703 123.914 283.715 122.394 281.02 119.343C278.325 116.304 276.978 111.559 276.978 105.105C276.978 99.0959 278.271 94.5249 280.843 91.379C283.416 88.2331 287.526 86.6602 293.175 86.6602C294.74 86.6602 296.319 86.808 297.884 87.1038C299.449 87.3996 300.824 87.7895 301.994 88.2734L301.504 94.9551V94.9686Z" fill="white"/>
<path d="M318.599 78.9163C318.599 81.269 317.074 82.4386 314.012 82.4386C312.488 82.4386 311.331 82.1832 310.569 81.6589C309.806 81.1345 309.425 80.2203 309.425 78.9163C309.425 76.4964 310.95 75.2729 314.012 75.2729C317.074 75.2729 318.599 76.4829 318.599 78.9163ZM310.079 123.134V87.4532L317.878 87.0365V123.147H310.079V123.134Z" fill="white"/>
<path d="M343.602 123.792C337.477 123.792 333.013 122.193 330.223 118.993C327.419 115.793 326.031 110.967 326.031 104.527C326.031 98.8001 327.31 94.377 329.869 91.2849C332.428 88.1794 336.348 86.6333 341.615 86.6333C343.833 86.6333 345.848 86.956 347.658 87.6147C349.468 88.2735 351.02 89.2818 352.313 90.6531C353.606 92.0243 354.586 93.7586 355.28 95.8424C355.961 97.9263 356.301 100.413 356.301 103.277C356.301 103.828 356.301 104.447 356.274 105.092C356.246 105.751 356.206 106.356 356.124 106.907H334.007C334.088 108.776 334.36 110.362 334.823 111.653C335.286 112.943 335.939 113.992 336.783 114.785C337.627 115.578 338.702 116.156 339.982 116.519C341.275 116.882 342.785 117.057 344.514 117.057C346.243 117.057 348.026 116.896 349.618 116.573C351.21 116.25 352.776 115.753 354.3 115.081L355.212 121.346C353.688 122.099 351.945 122.704 349.986 123.134C348.026 123.577 345.902 123.792 343.616 123.792H343.602ZM349.223 101.771C349.142 98.585 348.434 96.3399 347.114 95.0223C345.78 93.7048 343.97 93.0461 341.683 93.0461C339.029 93.0461 337.096 93.7317 335.912 95.103C334.728 96.4743 334.034 98.6926 333.83 101.758H349.237L349.223 101.771Z" fill="white"/>
<path d="M363.065 123.134V87.4536L369.231 87.0906L369.898 93.8395H370.075C371.205 91.4868 372.661 89.7122 374.458 88.5022C376.254 87.2922 378.269 86.6873 380.528 86.6873C382.011 86.6873 383.291 86.8486 384.339 87.1712L383.862 94.8746C383.291 94.673 382.692 94.5251 382.052 94.431C381.413 94.3369 380.746 94.2831 380.065 94.2831C378.731 94.2831 377.506 94.5385 376.377 95.0225C375.247 95.52 374.267 96.2325 373.45 97.1467C372.62 98.0609 371.967 99.2036 371.49 100.548C371.014 101.892 370.769 103.412 370.769 105.079V123.161H363.093L363.065 123.134Z" fill="white"/>
<path d="M403.176 108.332C402.373 108.332 401.57 108.305 400.767 108.238C399.964 108.184 399.174 108.063 398.412 107.915C397.119 108.439 396.48 109.152 396.48 110.066C396.48 110.577 396.697 111.021 397.146 111.384C397.596 111.747 398.276 111.962 399.202 112.042L407.967 112.634C412.282 112.956 415.303 113.844 417.059 115.323C418.815 116.788 419.686 118.858 419.686 121.534C419.686 123.281 419.4 124.841 418.815 126.212C418.229 127.584 417.29 128.767 415.97 129.762C414.663 130.756 412.989 131.509 410.961 132.034C408.933 132.544 406.456 132.813 403.557 132.813C401.012 132.813 398.848 132.571 397.038 132.101C395.227 131.617 393.717 130.971 392.532 130.138C391.348 129.304 390.477 128.31 389.933 127.153C389.388 125.997 389.116 124.72 389.116 123.335C389.116 120.915 390.164 118.845 392.26 117.124C391.457 116.613 390.777 115.928 390.232 115.067C389.688 114.207 389.416 113.185 389.416 111.989C389.416 110.792 389.783 109.676 390.532 108.614C391.28 107.565 392.41 106.692 393.948 106.019C392.655 105.226 391.648 104.151 390.899 102.793C390.151 101.435 389.783 99.7142 389.783 97.6034C389.783 95.9364 390.028 94.4172 390.504 93.0728C390.994 91.715 391.757 90.5722 392.832 89.6177C393.894 88.6632 395.282 87.9238 396.997 87.4129C398.712 86.902 400.781 86.6331 403.19 86.6331C404.755 86.6331 406.334 86.781 407.899 87.0768C409.464 87.3726 410.893 87.9238 412.186 88.717L418.229 86.5659L419.863 90.3302L415.82 93.3148C416.31 94.5113 416.542 95.9364 416.542 97.6169C416.542 101.045 415.521 103.68 413.493 105.549C411.465 107.418 408.021 108.359 403.19 108.359L403.176 108.332ZM397.854 118.536C396.398 119.732 395.677 120.996 395.677 122.354C395.677 123.86 396.275 125.016 397.46 125.782C398.644 126.548 400.617 126.952 403.353 126.952C405.204 126.952 406.742 126.858 407.981 126.656C409.206 126.454 410.158 126.172 410.852 125.796C411.533 125.419 412.023 124.962 412.309 124.424C412.595 123.886 412.731 123.295 412.731 122.663C412.731 122.152 412.635 121.695 412.458 121.319C412.282 120.942 411.968 120.606 411.519 120.31C411.07 120.015 410.458 119.773 409.682 119.598C408.892 119.423 407.885 119.289 406.633 119.208L397.868 118.549L397.854 118.536ZM403.23 92.4544C401.053 92.4544 399.528 92.8846 398.644 93.7316C397.759 94.592 397.31 95.9095 397.31 97.6976C397.31 98.7327 397.446 99.5932 397.732 100.265C398.018 100.938 398.399 101.475 398.916 101.879C399.419 102.282 400.018 102.551 400.726 102.712C401.434 102.873 402.21 102.954 403.054 102.954C405.435 102.954 407.041 102.537 407.885 101.704C408.729 100.87 409.151 99.5394 409.151 97.711C409.151 95.7616 408.688 94.4038 407.763 93.624C406.837 92.8443 405.326 92.4544 403.23 92.4544Z" fill="white"/>
<path d="M440.456 123.792C434.331 123.792 429.866 122.193 427.076 118.993C424.272 115.793 422.871 110.967 422.871 104.527C422.871 98.8001 424.15 94.377 426.709 91.2849C429.268 88.1794 433.187 86.6333 438.455 86.6333C440.673 86.6333 442.688 86.956 444.498 87.6147C446.308 88.2735 447.86 89.2818 449.153 90.6531C450.446 92.0243 451.426 93.7586 452.106 95.8424C452.787 97.9263 453.141 100.413 453.141 103.277C453.141 103.828 453.141 104.447 453.113 105.092C453.086 105.751 453.045 106.356 452.964 106.907H430.846C430.928 108.776 431.2 110.362 431.663 111.653C432.126 112.943 432.779 113.992 433.623 114.785C434.467 115.578 435.542 116.156 436.822 116.519C438.115 116.882 439.625 117.057 441.354 117.057C443.082 117.057 444.865 116.896 446.458 116.573C448.05 116.25 449.616 115.753 451.14 115.081L452.052 121.346C450.514 122.099 448.785 122.704 446.825 123.134C444.865 123.577 442.742 123.792 440.456 123.792ZM446.077 101.771C445.995 98.585 445.287 96.3399 443.967 95.0223C442.647 93.7048 440.823 93.0461 438.523 93.0461C435.869 93.0461 433.936 93.7317 432.752 95.103C431.568 96.4743 430.874 98.6926 430.67 101.758H446.077V101.771Z" fill="white"/>
<path d="M0 0H103.604C120.509 0 134.228 13.5516 134.228 30.2491V102.336C134.228 119.033 120.509 132.585 103.604 132.585H30.624C13.7195 132.585 0 119.033 0 102.336V0Z" fill="#6266F9"/>
<path d="M67.114 19.6687C66.379 19.6687 65.9571 20.4485 66.0115 21.1744L67.114 35.1831L68.2165 21.1744C68.2709 20.4485 67.8354 19.6687 67.114 19.6687Z" fill="#F9F562"/>
<path d="M52.5099 24.3337C51.8838 24.7505 51.843 25.6647 52.2105 26.2697L59.3152 37.7778L54.1296 25.0059C53.8574 24.3472 53.136 23.917 52.5099 24.3337Z" fill="#F9F562"/>
<path d="M81.7184 24.3337C81.0923 23.917 80.371 24.3337 80.0987 25.0059L74.9131 37.7778L82.0178 26.2697C82.3853 25.6647 82.3445 24.7505 81.7184 24.3337Z" fill="#F9F562"/>
<path d="M94.1719 34.2689L84.0864 42.3757L95.288 36.4603C95.8732 36.1377 96.2407 35.331 95.8732 34.6185C95.5057 33.8925 94.7027 33.8656 94.1719 34.2689Z" fill="#F9F562"/>
<path d="M38.3547 34.6049C37.9872 35.3309 38.3547 36.1376 38.94 36.4468L50.1415 42.3621L40.056 34.2554C39.5252 33.8386 38.7222 33.879 38.3547 34.6049Z" fill="#F9F562"/>
<path d="M113.295 107.539H113.145C107.238 103.559 106.626 100.991 106.626 95.0222H27.6025C27.6025 100.991 26.99 103.559 21.083 107.539H20.9333C19.6266 107.539 18.5786 108.749 18.5786 110.227C18.5786 111.706 19.6402 112.916 20.9333 112.916H113.295C114.602 112.916 115.65 111.706 115.65 110.227C115.65 108.749 114.588 107.539 113.295 107.539Z" fill="#F9F562"/>
<path d="M29.2358 105.065H104.992C103.182 103.465 102.352 101.973 101.985 100.051H32.2301C31.8626 101.973 31.046 103.465 29.2222 105.065H29.2358Z" fill="#D6CE34"/>
<path d="M69.7952 89.2683H64.4189V95.0089H69.7952V89.2683Z" fill="#F9F562"/>
<path d="M104.176 86.4987C104.04 86.1223 103.863 85.7727 103.672 85.4366C103.645 85.3829 103.618 85.3291 103.591 85.2888C103.536 85.1947 103.468 85.114 103.414 85.0199C103.346 84.9258 103.291 84.8317 103.223 84.7376C102.08 83.1512 99.0312 82.1429 99.0312 82.1429C99.0312 66.494 89.7623 55.1204 72.4767 53.1979V50.6167C70.4079 49.5008 69.3871 48.0085 69.3871 46.4625H68.3935V42.2545H71.4015C72.0548 42.2545 72.5856 41.6495 72.5856 40.9101C72.5856 40.1707 72.0548 39.5657 71.4015 39.5657H62.7587C62.1054 39.5657 61.5746 40.1707 61.5746 40.9101C61.5746 41.6495 62.1054 42.2545 62.7587 42.2545H65.7803V46.4625H64.7867C64.7867 48.0085 63.7659 49.5008 61.6971 50.6167V53.1979C44.4116 55.1204 35.1427 66.494 35.1427 82.1429C35.1427 82.1429 32.1075 83.1512 30.9506 84.7376C30.9234 84.7779 30.8962 84.8317 30.8553 84.872C30.0251 86.082 29.5215 87.6146 29.5215 89.2682H104.639C104.639 88.354 104.475 87.4667 104.203 86.6601C104.19 86.6063 104.162 86.5391 104.149 86.4853L104.176 86.4987Z" fill="#F9F562"/>
<path d="M104.244 86.6735C104.244 86.6735 104.203 86.5525 104.19 86.4987C104.053 86.1223 103.877 85.7727 103.686 85.4366C103.659 85.3828 103.632 85.3291 103.604 85.2887C103.55 85.1946 103.482 85.114 103.427 85.0199C103.359 84.9257 103.305 84.8316 103.237 84.7375C102.094 83.1511 99.0447 82.1428 99.0447 82.1428C99.0447 66.494 89.7759 55.1204 72.4903 53.1979V50.6166C70.4215 49.5008 69.4007 48.0085 69.4007 46.4624H68.4071V42.2545H71.4151C72.0684 42.2545 72.5992 41.6495 72.5992 40.9101C72.5992 40.1707 72.0684 39.5657 71.4151 39.5657H67.0869V89.295H104.652C104.652 88.3808 104.489 87.4936 104.217 86.6869L104.244 86.6735Z" fill="#F9F562"/>
<path d="M40.0425 76.7384C39.7703 78.6206 41.0497 80.3414 42.7238 80.3414C44.0712 80.3414 45.2145 79.1987 45.4051 77.6795C46.6573 67.8519 52.2921 60.3233 61.9012 56.8816C49.1208 58.3067 41.5941 65.9294 40.0425 76.7384Z" fill="#D6CE34"/>
<path d="M101.536 83.299C100.324 82.573 99.0448 82.1428 99.0448 82.1428H35.17C35.17 82.1428 33.8905 82.573 32.6792 83.299H101.536Z" fill="#F9F562"/>
<path d="M72.5718 53.198H72.5037V52.4048H61.7241V53.1845H72.5718V53.198Z" fill="#F9F562"/>
<path d="M68.4209 45.6558H65.8076V46.449H68.4209V45.6558Z" fill="#F9F562"/>
</g>
<defs>
<clipPath id="clip0_101_35">
<rect width="454" height="133" fill="white"/>
</clipPath>
</defs>
</svg>
