<svg width="135" height="133" viewBox="0 0 135 133" fill="none" xmlns="http://www.w3.org/2000/svg">
<path d="M0 0H103.604C120.509 0 134.228 13.5516 134.228 30.2491V102.336C134.228 119.033 120.509 132.585 103.604 132.585H30.624C13.7195 132.585 0 119.033 0 102.336V0Z" fill="#6266F9"/>
<path d="M67.114 19.6687C66.379 19.6687 65.9571 20.4485 66.0115 21.1744L67.114 35.1831L68.2165 21.1744C68.2709 20.4485 67.8354 19.6687 67.114 19.6687Z" fill="#F9F562"/>
<path d="M52.5099 24.3337C51.8838 24.7505 51.843 25.6647 52.2105 26.2697L59.3152 37.7778L54.1296 25.0059C53.8574 24.3472 53.136 23.917 52.5099 24.3337Z" fill="#F9F562"/>
<path d="M81.7184 24.3337C81.0923 23.917 80.371 24.3337 80.0987 25.0059L74.9131 37.7778L82.0178 26.2697C82.3853 25.6647 82.3445 24.7505 81.7184 24.3337Z" fill="#F9F562"/>
<path d="M94.1719 34.2689L84.0864 42.3757L95.288 36.4603C95.8732 36.1377 96.2407 35.331 95.8732 34.6185C95.5057 33.8925 94.7027 33.8656 94.1719 34.2689Z" fill="#F9F562"/>
<path d="M38.3547 34.6049C37.9872 35.3309 38.3547 36.1376 38.94 36.4468L50.1415 42.3621L40.056 34.2554C39.5252 33.8386 38.7222 33.879 38.3547 34.6049Z" fill="#F9F562"/>
<path d="M113.295 107.539H113.145C107.238 103.559 106.626 100.991 106.626 95.0222H27.6025C27.6025 100.991 26.99 103.559 21.083 107.539H20.9333C19.6266 107.539 18.5786 108.749 18.5786 110.227C18.5786 111.706 19.6402 112.916 20.9333 112.916H113.295C114.602 112.916 115.65 111.706 115.65 110.227C115.65 108.749 114.588 107.539 113.295 107.539Z" fill="#F9F562"/>
<path d="M29.2358 105.065H104.992C103.182 103.465 102.352 101.973 101.985 100.051H32.2301C31.8626 101.973 31.046 103.465 29.2222 105.065H29.2358Z" fill="#D6CE34"/>
<path d="M69.7952 89.2683H64.4189V95.0089H69.7952V89.2683Z" fill="#F9F562"/>
<path d="M104.176 86.4987C104.04 86.1223 103.863 85.7727 103.672 85.4366C103.645 85.3829 103.618 85.3291 103.591 85.2888C103.536 85.1947 103.468 85.114 103.414 85.0199C103.346 84.9258 103.291 84.8317 103.223 84.7376C102.08 83.1512 99.0311 82.1429 99.0311 82.1429C99.0311 66.494 89.7623 55.1204 72.4767 53.1979V50.6167C70.4079 49.5008 69.3871 48.0085 69.3871 46.4625H68.3935V42.2545H71.4015C72.0548 42.2545 72.5856 41.6495 72.5856 40.9101C72.5856 40.1707 72.0548 39.5657 71.4015 39.5657H62.7587C62.1054 39.5657 61.5746 40.1707 61.5746 40.9101C61.5746 41.6495 62.1054 42.2545 62.7587 42.2545H65.7803V46.4625H64.7867C64.7867 48.0085 63.7659 49.5008 61.6971 50.6167V53.1979C44.4116 55.1204 35.1427 66.494 35.1427 82.1429C35.1427 82.1429 32.1075 83.1512 30.9506 84.7376C30.9234 84.7779 30.8962 84.8317 30.8553 84.872C30.0251 86.082 29.5215 87.6146 29.5215 89.2682H104.639C104.639 88.354 104.475 87.4667 104.203 86.6601C104.19 86.6063 104.162 86.5391 104.149 86.4853L104.176 86.4987Z" fill="#F9F562"/>
<path d="M104.244 86.6735C104.244 86.6735 104.203 86.5525 104.19 86.4987C104.053 86.1223 103.877 85.7727 103.686 85.4366C103.659 85.3828 103.632 85.3291 103.604 85.2887C103.55 85.1946 103.482 85.114 103.427 85.0199C103.359 84.9257 103.305 84.8316 103.237 84.7375C102.094 83.1511 99.0447 82.1428 99.0447 82.1428C99.0447 66.494 89.7759 55.1204 72.4903 53.1979V50.6166C70.4215 49.5008 69.4007 48.0085 69.4007 46.4624H68.4071V42.2545H71.4151C72.0684 42.2545 72.5992 41.6495 72.5992 40.9101C72.5992 40.1707 72.0684 39.5657 71.4151 39.5657H67.0869V89.295H104.652C104.652 88.3808 104.489 87.4936 104.217 86.6869L104.244 86.6735Z" fill="#F9F562"/>
<path d="M40.0425 76.7384C39.7703 78.6206 41.0497 80.3414 42.7238 80.3414C44.0712 80.3414 45.2145 79.1987 45.4051 77.6795C46.6573 67.8519 52.2921 60.3233 61.9012 56.8816C49.1208 58.3067 41.5941 65.9294 40.0425 76.7384Z" fill="#D6CE34"/>
<path d="M101.536 83.299C100.324 82.573 99.0448 82.1428 99.0448 82.1428H35.17C35.17 82.1428 33.8905 82.573 32.6792 83.299H101.536Z" fill="#F9F562"/>
<path d="M72.5718 53.198H72.5037V52.4048H61.7241V53.1845H72.5718V53.198Z" fill="#F9F562"/>
<path d="M68.4209 45.6558H65.8076V46.449H68.4209V45.6558Z" fill="#F9F562"/>
</svg>
